<svg width="84" height="84" viewBox="0 0 84 84" fill="none" xmlns="http://www.w3.org/2000/svg">
<path d="M75 84C79.875 84 84 80.0625 84 75V9C84 4.125 79.875 0 75 0H9C3.9375 0 0 4.125 0 9V75C0 80.0625 3.9375 84 9 84H75ZM36.5625 65.625C35.4375 66.9375 33.375 66.9375 32.25 65.625L12.75 46.125C11.625 45 11.625 43.125 12.75 42L17.0625 37.6875C18.1875 36.5625 20.0625 36.5625 21.1875 37.6875L34.5 50.8125L62.625 22.6875C63.75 21.5625 65.625 21.5625 66.75 22.6875L71.0625 27C72.1875 28.125 72.1875 30 71.0625 31.125L36.5625 65.625Z" fill="#2AD000"/>
</svg>
