<svg width="108" height="96" viewBox="0 0 108 96" fill="none" xmlns="http://www.w3.org/2000/svg">
<path d="M30 84C25.125 84 20.25 79.875 18 78C6 69.75 2.25 66.75 0 64.875V90C0 93.375 2.625 96 6 96H54C57.1875 96 60 93.375 60 90V64.875C57.5625 66.75 54 69.75 42 78C39.5625 79.875 34.6875 84 30 84ZM54 48H6C2.625 48 0 50.8125 0 54V57C4.6875 60.75 4.125 60.75 21.5625 73.3125C23.25 74.4375 27 78 30 78C33 78 36.5625 74.4375 38.25 73.875C55.6875 61.3125 55.125 61.3125 60 57.75V54C60 50.8125 57.1875 48 54 48ZM102 30H42C38.625 30 36 32.8125 36 36V42H54C60.1875 42 65.25 46.875 65.8125 52.875H66V78H102C105.188 78 108 75.375 108 72V36C108 32.8125 105.188 30 102 30ZM96 54H84V42H96V54ZM30 36C30 29.4375 35.25 24 42 24H84V6C84 2.8125 81.1875 0 78 0H18C14.625 0 12 2.8125 12 6V42H30V36Z" fill="#CDC6AF"/>
</svg>
