<svg width="41" height="37" viewBox="0 0 41 37" fill="none" xmlns="http://www.w3.org/2000/svg">
<path d="M40.0781 17.1641L36 13.5078V3.875C36 3.3125 35.4375 2.75 34.875 2.75H30.375C29.7422 2.75 29.25 3.3125 29.25 3.875V7.53125L22.0781 1.27344C21.6562 0.851562 20.8125 0.5 20.25 0.5C19.6172 0.5 18.7734 0.851562 18.3516 1.27344L0.351562 17.1641C0.140625 17.375 0 17.6562 0 18.0078C0 18.2891 0.0703125 18.5 0.28125 18.7109L1.75781 20.3984C1.96875 20.6094 2.25 20.75 2.60156 20.75C2.88281 20.75 3.16406 20.6797 3.375 20.4688L4.5 19.4844V34.25C4.5 35.5156 5.48438 36.5 6.75 36.5H33.75C34.9453 36.5 36 35.5156 36 34.25V19.4844L37.0547 20.4688C37.2656 20.6797 37.5469 20.75 37.8281 20.75C38.1797 20.75 38.4609 20.6094 38.6719 20.3984L40.1484 18.7109C40.3594 18.5 40.4297 18.2891 40.5 18.0078C40.4297 17.6562 40.2891 17.375 40.0781 17.1641ZM20.25 12.875C22.7109 12.875 24.75 14.9141 24.75 17.375C24.75 19.9062 22.7109 21.875 20.25 21.875C17.7188 21.875 15.75 19.9062 15.75 17.375C15.75 14.9141 17.7188 12.875 20.25 12.875ZM28.125 32H12.375C11.7422 32 11.25 31.5078 11.25 30.875C11.25 27.2188 14.2734 24.125 18 24.125H22.5C26.1562 24.125 29.25 27.2188 29.25 30.875C29.25 31.5078 28.6875 32 28.125 32Z" fill="#FFDBCD"/>
</svg>
