<svg width="67" height="96" viewBox="0 0 67 96" fill="none" xmlns="http://www.w3.org/2000/svg">
<path d="M33.875 0C18.875 0 9.125 6.1875 1.4375 17.25C0.125 19.125 0.5 21.9375 2.5625 23.25L10.625 29.4375C12.5 30.9375 15.3125 30.5625 16.8125 28.6875C21.5 22.875 25.0625 19.5 32.375 19.5C38.1875 19.5 45.3125 23.0625 45.3125 28.6875C45.3125 33 41.75 35.0625 36.125 38.25C29.375 42 20.5625 46.6875 20.5625 58.3125V60C20.5625 62.625 22.625 64.5 25.0625 64.5H38.75C41.1875 64.5 43.25 62.625 43.25 60V59.0625C43.25 51 66.6875 50.625 66.6875 28.875C66.6875 12.5625 49.625 0 33.875 0ZM32 70.125C24.6875 70.125 18.875 75.9375 18.875 83.0625C18.875 90.1875 24.6875 96 32 96C39.125 96 44.9375 90.1875 44.9375 83.0625C44.9375 75.9375 39.125 70.125 32 70.125Z" fill="#0041EA"/>
</svg>
