<svg width="41" height="37" viewBox="0 0 41 37" fill="none" xmlns="http://www.w3.org/2000/svg">
<path d="M37.125 0.5H3.375C1.47656 0.5 0 2.04688 0 3.875V26.375C0 28.2734 1.47656 29.75 3.375 29.75H16.875L15.75 33.125H10.6875C9.70312 33.125 9 33.8984 9 34.8125C9 35.7969 9.70312 36.5 10.6875 36.5H29.8125C30.7266 36.5 31.5 35.7969 31.5 34.8125C31.5 33.8984 30.7266 33.125 29.8125 33.125H24.75L23.625 29.75H37.125C38.9531 29.75 40.5 28.2734 40.5 26.375V3.875C40.5 2.04688 38.9531 0.5 37.125 0.5ZM36 25.25H4.5V5H36V25.25Z" fill="#FFDBCD"/>
</svg>
