<svg width="96" height="84" viewBox="0 0 96 84" fill="none" xmlns="http://www.w3.org/2000/svg">
<path d="M87 0H9C3.9375 0 0 4.125 0 9V75C0 80.0625 3.9375 84 9 84H87C91.875 84 96 80.0625 96 75V9C96 4.125 91.875 0 87 0ZM71.25 54.5625C72.1875 55.5 72.1875 57 71.25 57.75L63.5625 65.4375C62.8125 66.375 61.3125 66.375 60.375 65.4375L48 52.875L35.4375 65.4375C34.5 66.375 33 66.375 32.25 65.4375L24.5625 57.75C23.625 57 23.625 55.5 24.5625 54.5625L37.125 42L24.5625 29.625C23.625 28.6875 23.625 27.1875 24.5625 26.4375L32.25 18.75C33 17.8125 34.5 17.8125 35.4375 18.75L48 31.3125L60.375 18.75C61.3125 17.8125 62.8125 17.8125 63.5625 18.75L71.25 26.4375C72.1875 27.1875 72.1875 28.6875 71.25 29.625L58.6875 42L71.25 54.5625Z" fill="#E20000"/>
</svg>
